<?xml version="1.0" standalone="no"?>
<!DOCTYPE svg PUBLIC "-//W3C//DTD SVG 20010904//EN"
 "http://www.w3.org/TR/2001/REC-SVG-20010904/DTD/svg10.dtd">
<svg version="1.0" xmlns="http://www.w3.org/2000/svg"
 width="1024.000000pt" height="1024.000000pt" viewBox="0 0 1024.000000 1024.000000"
 preserveAspectRatio="xMidYMid meet">

<g transform="translate(0.000000,1024.000000) scale(0.100000,-0.100000)"
fill="#000000" stroke="none">
<path d="M1843 6495 c-440 -68 -803 -402 -920 -845 -34 -129 -42 -333 -19
-474 37 -223 136 -431 277 -580 56 -59 58 -61 82 -46 14 8 66 54 116 101 115
109 116 116 28 232 -112 148 -167 305 -167 478 0 172 47 325 139 456 209 295
573 416 908 301 140 -48 202 -87 314 -199 87 -85 102 -107 147 -200 68 -140
86 -227 80 -383 -4 -96 -11 -137 -32 -201 -109 -323 -392 -534 -739 -552
l-108 -6 -117 -124 c-64 -69 -118 -128 -120 -133 -9 -24 22 -48 80 -66 89 -26
358 -26 476 -1 455 100 793 433 894 881 15 67 21 128 21 231 1 153 -10 227
-50 350 -175 540 -719 869 -1290 780z"/>
<path d="M4085 6266 c-220 -70 -361 -281 -341 -511 12 -136 56 -234 146 -319
231 -220 621 -164 768 111 154 289 9 636 -299 718 -66 18 -220 18 -274 1z
m238 -182 c107 -36 187 -146 195 -270 9 -142 -48 -248 -163 -305 -59 -29 -71
-31 -137 -27 -118 8 -196 61 -247 168 -22 46 -26 69 -26 140 0 76 3 93 33 152
52 107 128 156 243 157 30 1 76 -6 102 -15z"/>
<path d="M6760 5788 l0 -478 90 0 90 0 0 481 0 480 -90 -2 -90 -3 0 -478z"/>
<path d="M5165 6035 c-5 -2 -22 -6 -37 -9 -33 -7 -85 -50 -109 -91 l-19 -30 0
58 0 57 -90 0 -90 0 0 -355 0 -355 95 0 95 0 0 215 c0 196 2 219 20 255 25 48
65 71 142 77 l58 6 0 82 c0 77 -1 83 -22 89 -25 6 -28 6 -43 1z"/>
<path d="M5545 6029 c-71 -8 -108 -21 -154 -56 -35 -27 -81 -112 -81 -150 0
-22 4 -23 80 -23 63 0 80 3 80 14 0 8 10 27 23 42 18 20 35 28 74 31 96 10
153 -30 153 -106 0 -36 -4 -38 -135 -47 -156 -11 -226 -39 -274 -111 -44 -68
-37 -181 16 -243 45 -54 97 -75 188 -74 88 0 127 14 183 67 l32 31 0 -47 0
-47 81 0 80 0 -3 273 c-3 264 -4 273 -27 321 -47 94 -167 142 -316 125z m175
-449 c0 -41 -5 -55 -31 -85 -53 -60 -155 -71 -206 -23 -33 31 -29 93 9 121 25
19 98 33 186 36 l42 1 0 -50z"/>
<path d="M6288 6029 c-111 -16 -213 -93 -261 -197 -18 -39 -22 -65 -22 -162 0
-103 3 -121 26 -170 36 -77 77 -121 150 -160 78 -41 192 -52 281 -26 102 29
193 126 211 224 l7 32 -84 0 -84 0 -21 -35 c-28 -49 -76 -75 -134 -75 -111 0
-177 81 -177 221 0 73 40 155 90 181 54 29 141 21 180 -17 16 -16 32 -37 36
-47 5 -16 17 -18 95 -18 102 0 103 2 68 80 -24 54 -81 115 -130 140 -30 16
-150 43 -169 39 -3 -1 -31 -5 -62 -10z"/>
<path d="M7245 6006 c-55 -25 -123 -93 -153 -153 -29 -56 -46 -154 -39 -227
18 -188 135 -310 312 -323 128 -10 239 41 296 137 51 85 51 86 -40 88 -73 2
-80 1 -94 -21 -37 -57 -156 -76 -217 -34 -47 31 -71 67 -77 116 l-6 42 239 -1
239 -2 3 39 c5 53 -16 149 -43 204 -30 59 -103 123 -162 143 -73 25 -197 21
-258 -8z m215 -134 c35 -17 80 -81 80 -114 0 -15 -17 -17 -151 -20 -110 -2
-153 0 -156 9 -9 23 35 102 69 123 41 25 111 26 158 2z"/>
<path d="M7122 5017 c-28 -30 -29 -80 -2 -107 44 -44 130 -8 130 54 0 67 -83
101 -128 53z"/>
<path d="M9270 5020 c-28 -28 -26 -81 3 -108 48 -45 127 -11 127 53 0 66 -84
101 -130 55z"/>
<path d="M3922 5014 c-109 -29 -183 -91 -231 -194 -22 -48 -26 -68 -26 -155 0
-93 2 -105 33 -167 36 -73 86 -123 161 -159 37 -19 64 -23 136 -23 51 -1 106
5 128 12 63 23 132 85 161 146 14 30 26 57 26 60 0 3 -31 6 -69 6 -68 0 -69
-1 -89 -34 -22 -37 -92 -76 -138 -76 -88 0 -181 67 -203 145 -26 94 -7 194 49
258 83 94 222 87 285 -13 l25 -40 70 0 c39 0 70 2 70 5 0 2 -7 24 -17 47 -35
92 -126 168 -218 183 -86 13 -102 13 -153 -1z"/>
<path d="M6520 4670 l0 -350 60 0 60 0 0 78 c0 42 1 199 1 347 l2 270 -62 3
-61 3 0 -351z"/>
<path d="M6780 4900 l0 -70 -45 0 -45 0 0 -55 0 -55 45 0 45 0 0 -143 c0 -128
2 -147 23 -187 28 -58 54 -70 150 -70 l77 0 0 55 0 55 -45 -2 c-25 -1 -50 3
-57 10 -9 9 -15 58 -18 147 l-5 135 63 0 62 0 0 55 0 55 -60 0 -59 0 -3 68 -3
67 -62 3 -63 3 0 -71z"/>
<path d="M4516 4825 c-173 -61 -224 -308 -91 -441 94 -94 249 -97 353 -9 58
50 85 114 85 200 -1 42 -7 86 -17 110 -51 121 -203 186 -330 140z m138 -109
c39 -16 72 -56 81 -97 37 -167 -154 -271 -234 -128 -19 33 -22 52 -19 100 5
70 29 109 79 126 45 16 54 16 93 -1z"/>
<path d="M5124 4821 c-23 -11 -47 -27 -53 -38 -9 -15 -10 -13 -11 15 l0 32
-60 0 -60 0 0 -255 0 -255 60 0 60 0 0 164 c0 153 1 165 23 197 22 32 26 34
81 34 53 0 61 -3 80 -28 19 -26 21 -44 25 -198 l3 -169 59 0 59 0 0 183 c0
100 -5 198 -10 217 -27 98 -154 147 -256 101z"/>
<path d="M5583 4824 c-102 -37 -139 -158 -71 -231 29 -31 72 -49 151 -63 102
-19 133 -53 86 -96 -15 -14 -36 -19 -76 -19 -50 0 -58 3 -82 33 -25 28 -33 32
-79 32 -59 0 -61 -4 -33 -66 35 -76 141 -117 254 -96 101 19 157 77 157 163 0
82 -45 117 -195 149 -90 20 -121 60 -73 94 38 27 95 20 130 -14 25 -25 37 -30
80 -30 l51 0 -7 31 c-9 44 -40 84 -83 105 -50 24 -155 28 -210 8z"/>
<path d="M7534 4826 c-17 -7 -41 -24 -53 -37 l-21 -23 0 32 0 32 -60 0 -60 0
0 -255 0 -255 65 0 66 0 -3 168 c-3 146 -1 171 14 195 23 34 83 51 128 36 51
-18 60 -53 60 -239 l0 -160 60 0 60 0 0 195 c0 218 -8 251 -71 295 -39 28
-140 37 -185 16z"/>
<path d="M8020 4827 c-50 -16 -114 -84 -133 -142 -44 -127 4 -274 104 -325 78
-40 164 -36 232 12 l27 19 0 -36 c0 -69 -56 -125 -124 -125 -36 0 -95 26 -102
45 -5 11 -21 15 -65 15 -63 0 -65 -3 -48 -47 28 -75 99 -113 214 -113 93 0
142 18 193 71 55 56 62 101 62 381 l0 248 -60 0 -60 0 0 -32 0 -32 -27 26
c-16 15 -41 32 -56 37 -35 14 -111 12 -157 -2z m189 -122 c77 -66 63 -211 -25
-254 -68 -34 -133 -7 -166 66 -35 78 -11 168 53 200 42 22 104 16 138 -12z"/>
<path d="M8854 4824 c-50 -18 -91 -59 -109 -110 l-13 -39 61 -3 c41 -2 63 1
66 9 7 21 40 48 66 55 57 14 119 -26 113 -74 -3 -26 -5 -27 -106 -39 -146 -17
-199 -54 -209 -144 -14 -145 184 -225 298 -122 l39 35 0 -36 0 -36 55 0 55 0
0 178 c0 97 -5 193 -10 214 -13 45 -75 103 -127 117 -52 15 -130 12 -179 -5z
m187 -314 c-4 -47 -16 -67 -51 -85 -64 -33 -140 -9 -140 45 0 37 21 58 68 65
20 4 42 8 47 10 6 2 26 3 45 2 34 -2 35 -3 31 -37z"/>
<path d="M5960 4665 c0 -90 5 -187 11 -215 28 -133 189 -185 290 -93 l39 35 0
-36 0 -36 60 0 60 0 0 255 -1 255 -64 0 -65 0 0 -169 c0 -166 0 -170 -25 -199
-31 -36 -66 -46 -111 -32 -57 19 -64 46 -64 235 l0 165 -65 0 -65 0 0 -165z"/>
<path d="M7110 4575 l0 -255 60 0 60 0 0 255 0 255 -60 0 -60 0 0 -255z"/>
<path d="M9260 4575 l0 -255 65 0 65 0 -2 253 -3 252 -62 3 -63 3 0 -256z"/>
<path d="M1552 4646 c-34 -32 -37 -39 -39 -92 l-1 -57 -103 -103 c-74 -74
-111 -104 -134 -108 -95 -18 -112 -156 -25 -201 46 -24 76 -19 118 19 33 31
37 39 37 85 0 50 0 51 93 144 l94 94 50 -5 c100 -10 154 48 149 157 -1 13 -18
41 -40 62 -36 37 -42 39 -100 39 -56 0 -65 -3 -99 -34z"/>
<path d="M1031 4439 c-40 -40 -43 -94 -6 -137 30 -36 66 -47 111 -32 76 25
100 116 45 171 -24 23 -38 29 -74 29 -37 0 -51 -6 -76 -31z"/>
<path d="M8509 4452 c-17 -14 -22 -28 -21 -57 2 -44 22 -71 60 -78 55 -11 96
27 94 87 -2 59 -83 88 -133 48z"/>
</g>
</svg>
